REM DATE 2020-03-12 11:52 AM
REM RECORDED_BY "rekordbox-dj"
TITLE "mini mix test REC-2020-03-12"
PERFORMER "comfort"
FILE "01 mini mix test REC-2020-03-12.wav" WAVE
	TRACK 01 AUDIO
		TITLE "candy paint w_ trip-334342902.wav"
		PERFORMER "blizzard"
		FILE "/Users/mark/Music/dj/library/candy paint w_ trip-334342902.wav.mp3" WAVE
		INDEX 01 00:00:09
	TRACK 02 AUDIO
		TITLE "comfort - more than a memory"
		FILE "/Users/mark/Music/Ableton/dan shay Project/comfort - more than a memory.mp3" WAVE
		INDEX 01 00:01:26
	TRACK 03 AUDIO
		TITLE "comfort - ambeat"
		FILE "/Users/mark/Music/Ableton/ambeat Project/comfort - ambeat.mp3" WAVE
		INDEX 01 00:02:50
	TRACK 04 AUDIO
		TITLE "cresylic - give up (w_ sinshei)-385741514.wav"
		FILE "/Users/mark/Music/dj/library/cresylic - give up (w_ sinshei)-385741514.wav.mp3" WAVE
		INDEX 01 00:06:31
